<svg width="35" height="35" fill="none" xmlns="http://www.w3.org/2000/svg"><path d="M25.236 11.947c.534.534.534 1.4 0 1.934l-9.172 9.172c-.534.534-1.4.534-1.934 0l-4.366-4.367a1.367 1.367 0 111.934-1.933l3.399 3.4 8.205-8.206a1.367 1.367 0 011.934 0zM35 17.5C35 27.173 27.172 35 17.5 35 7.827 35 0 27.172 0 17.5 0 7.827 7.828 0 17.5 0 27.173 0 35 7.828 35 17.5zm-2.734 0c0-8.162-6.605-14.766-14.766-14.766C9.338 2.734 2.734 9.34 2.734 17.5c0 8.162 6.605 14.766 14.766 14.766 8.162 0 14.766-6.605 14.766-14.766z" fill="#FF6565"/></svg>